<svg width="240" height="20" viewBox="0 0 240 20" fill="none" xmlns="http://www.w3.org/2000/svg">
<g clip-path="url(#clip0_1111_3149)">
<path d="M138.96 17.1763C138.36 17.2155 137.76 17.2155 137.24 17.2155C136.76 17.2155 136.32 17.2155 135.96 17.1763C131.56 16.7841 128.6 14.5488 128.6 11.5684C128.6 8.66646 131.8 6.31353 136.24 5.96059C136.64 5.92137 137 5.92137 137.36 5.92137C137.72 5.92137 138.12 5.92137 138.68 5.96059H138.84C143.2 6.11745 146.52 8.54882 146.52 11.5684C146.44 14.5488 143.28 16.941 138.96 17.1763ZM138.88 3.21549H138.72C138.12 3.17627 137.68 3.17627 137.28 3.17627C136.84 3.17627 136.4 3.17627 135.96 3.21549C133.16 3.45078 130.64 4.35273 128.8 5.80371C126.84 7.33313 125.76 9.37235 125.76 11.5684C125.76 13.7645 126.76 15.8037 128.64 17.3331C130.44 18.7841 132.88 19.6861 135.68 19.9606C136.12 19.9998 136.64 20.039 137.2 20.039C137.76 20.039 138.4 19.9998 139.08 19.9606C144.96 19.6076 149.2 16.0782 149.2 11.6076C149.24 7.01941 144.8 3.41157 138.88 3.21549Z" fill="#0056B8"/>
<path d="M219.36 16.9412V12.6275H230.76V9.84315H219.36V6.15687H233.08V3.37256H216.56V19.7255H233.24V16.9412H219.36Z" fill="#0056B8"/>
<path d="M117.84 8.66685C116.24 8.39234 114.84 8.27468 113.44 8.15703C111.64 8.00017 109.96 7.88253 108.2 7.37272C107.08 7.059 106.44 6.39233 106.4 5.64723C106.36 4.78449 107.08 3.96096 108.2 3.52959C109.36 3.09822 111.16 2.86292 113.28 2.86292C116.2 2.86292 119.4 3.33351 121.88 4.07861L122.08 4.15704V1.25508L121.96 1.21587C119.88 0.666846 117.44 0.274682 115.08 0.117819C114.44 0.0786037 113.84 0.0786133 113.24 0.0786133C110.8 0.0786133 108.68 0.392332 107.2 0.941351C104.92 1.8041 103.48 3.72566 103.6 5.80409C103.68 7.80409 105.16 9.45115 107.44 10.1178C109.48 10.7061 111.28 10.8237 113.24 10.9806C114.56 11.0982 115.92 11.1767 117.36 11.4512C119.36 11.8041 120.72 12.8237 120.76 14.0786C120.8 15.2551 119.64 16.2747 117.84 16.7453C116.36 17.1374 114.64 17.2943 112.72 17.2943C109.52 17.2943 106.08 16.7453 103.48 15.8433L103.28 15.7649V18.7061L103.4 18.7453C106.2 19.608 109.6 20.0786 112.72 20.0786C114.88 20.0786 116.8 19.8433 118.52 19.4119C121.68 18.6276 123.64 16.4708 123.56 13.9217C123.44 11.2943 121.2 9.25508 117.84 8.66685Z" fill="#0056B8"/>
<path d="M167.24 11.9609C167.24 14.9413 164.8 17.1766 161.56 17.1766H160.24C157 17.1766 154.56 14.9413 154.56 11.9609V3.3335H151.76V11.9609C151.76 16.51 155.4 19.9609 160.24 19.9609H161.56C166.4 19.9609 170.04 16.51 170.04 11.9609V3.3335H167.24V11.9609Z" fill="#0056B8"/>
<path d="M206.68 3.13736H206.52C205.88 3.09815 205.44 3.09814 205.04 3.09814C204.56 3.09814 204.12 3.09815 203.64 3.13736C200.72 3.37266 198.08 4.27462 196.16 5.7256C194.12 7.25501 192.96 9.33344 192.96 11.5687C192.96 16.0785 197.12 19.4903 203.32 20.0001C203.8 20.0393 204.32 20.0393 204.92 20.0393C205.52 20.0393 206.2 20.0001 206.88 19.9609C209.08 19.8432 211.12 19.2942 212.84 18.3923L212.92 18.353V14.9805L212.64 15.1766C211.16 16.3138 209.04 17.0589 206.72 17.1766C205.48 17.255 204.36 17.255 203.56 17.1766C198.88 16.7844 195.76 14.5099 195.76 11.5295C195.76 8.62756 199.16 6.2354 203.84 5.88246C204.72 5.80403 205.28 5.84325 206.4 5.88246H206.56C208.96 5.96089 211.12 6.66677 212.64 7.84325L212.92 8.03932V4.70599L212.84 4.66677C211.08 3.76481 208.96 3.21579 206.68 3.13736Z" fill="#0056B8"/>
<path d="M185.56 11.5686H182.44H182.16H176.2V6.03922H185.56C187.08 6.03922 188.32 7.25491 188.32 8.78432C188.32 10.3529 187.08 11.5686 185.56 11.5686ZM191 8.82354C191 5.80393 188.56 3.37256 185.56 3.37256H173.28V19.7255H176.16V14.1177H183.72L187.28 19.7647H190.56L187 14.1177C189.36 13.4118 191 11.2941 191 8.82354Z" fill="#0056B8"/>
<path d="M94.52 10.7846C92.96 10.5493 91.6 10.4316 90.24 10.3532C88.44 10.2356 86.72 10.1179 84.92 9.64732C83.56 9.29438 82.72 8.54928 82.68 7.6081C82.64 6.86301 83.2 5.80418 84.88 5.21594C86.44 4.66693 88.6 4.54929 90.16 4.54929C92.84 4.54929 95.76 4.90222 98.16 5.49046V3.92183C95.72 3.37281 92.96 3.05908 90.32 3.05908C87.88 3.05908 85.72 3.3336 84.4 3.80419C82.4 4.51007 81.12 6.00027 81.2 7.68654C81.28 9.60811 83 10.7061 84.56 11.0983C86.52 11.6081 88.28 11.7257 90.16 11.8826C91.48 11.961 92.84 12.0787 94.32 12.314C97.12 12.7454 98.16 14.1179 98.2 15.1375C98.24 16.1179 97.36 17.4512 94.84 18.0395C93.32 18.3924 91.56 18.5885 89.64 18.5885C86.72 18.5885 83.56 18.1571 80.96 17.4512V19.0199C83.6 19.6865 86.72 20.0787 89.6 20.0787C91.68 20.0787 93.56 19.8826 95.16 19.5297C98 18.863 99.76 17.1375 99.68 15.0983C99.6 12.9807 97.56 11.2944 94.52 10.7846Z" fill="#0056B8"/>
<path d="M13.7601 10.3533H1.76008V1.64743H13.7601C16.1601 1.64743 18.1201 3.6082 18.1201 6.00036C18.1201 8.39252 16.1601 10.3533 13.7601 10.3533ZM19.6001 6.00036C19.6001 2.78468 17.0001 0.157227 13.7601 0.157227H0.0800781V19.6866H1.76008V11.8043H13.7601C17.0001 11.8435 19.6001 9.21605 19.6001 6.00036Z" fill="#0056B8"/>
<path d="M60.28 4.86291H69.2V19.7256H70.72V4.86291H79.64V3.3335H60.28V4.86291Z" fill="#0056B8"/>
<path d="M21.8801 15.0194L27.8001 5.88215L33.6401 15.0194H21.8801ZM17.0801 19.7253H18.8401L21.0801 16.2351H34.4401L36.6801 19.7253H38.4401L27.8401 3.17627L17.0801 19.7253Z" fill="#0056B8"/>
<path d="M53.7601 12.3139H51.4001H42.7201V4.74526H53.7601C55.8401 4.74526 57.5601 6.43153 57.5601 8.54918C57.5201 10.6276 55.8401 12.3139 53.7601 12.3139ZM58.9601 8.54918C58.9601 5.68643 56.6401 3.3335 53.7601 3.3335H41.0801V19.6864H42.7201V13.5296H52.1601L56.0401 19.7256H57.8401L54.0801 13.8041L54.8801 13.608C57.2801 13.059 58.9601 10.9806 58.9601 8.54918Z" fill="#0056B8"/>
<path d="M237.88 3.17639C238.24 3.17639 238.48 3.05874 238.48 2.74502C238.48 2.47051 238.32 2.31364 237.92 2.31364H237.56V3.17639H237.88ZM237.16 2.03914H237.96C238.4 2.03914 238.84 2.196 238.84 2.78424C238.84 3.05875 238.64 3.33326 238.36 3.41169L238.92 4.39208H238.48L238.04 3.52933H237.48V4.39208H237.12V2.03914H237.16ZM239.72 3.25482C239.72 2.15678 238.96 1.33325 237.96 1.33325C237 1.33325 236.2 2.15678 236.2 3.25482C236.2 4.35286 236.96 5.13718 237.96 5.13718C238.92 5.09796 239.72 4.31364 239.72 3.25482ZM235.84 3.25482C235.84 1.92148 236.8 1.01953 237.96 1.01953C239.12 1.01953 240.08 1.92148 240.08 3.25482C240.08 4.58815 239.12 5.4509 237.96 5.4509C236.8 5.4509 235.84 4.54894 235.84 3.25482Z" fill="#0056B8"/>
</g>
<defs>
<clipPath id="clip0_1111_3149">
<rect width="240" height="20" fill="white"/>
</clipPath>
</defs>
</svg>
